# xmcd
#
# Track frame offsets:
#	150
#	20793
#	42469
#	61792
#	85229
#	104879
#	126933
#	148987
#	166960
#	183364
#	206664
#	218072
#	239464
#
# Disc length: 3487 seconds
#
# Revision: 0
# Processed by: cddbd v1.5.2PL0 Copyright (c) Steve Scherf et al.
# Submitted via: audiograbber 1.82.02
#
DISCID=c80d9d0d
DTITLE=Josh Groban - Awake
DYEAR=2006
DGENRE=Vocal
TTITLE0=Mai
TTITLE1=You Are Loved (Don't Give Up)
TTITLE2=Un Dia Llegara
TTITLE3=February Song
TTITLE4=L'ultima Notte
TTITLE5=So She Dances
TTITLE6=In Her Eyes
TTITLE7=Solo Por Ti
TTITLE8=Now Or Never
TTITLE9=Un Giorno Per Noi (Romeo E Giu
TTITLE10=Lullaby (With Ladysmith Black
TTITLE11=Weeping
TTITLE12=Machine (With Herbie Hancock)
EXTD=DEaConBlue
EXTT0=
EXTT1=
EXTT2=
EXTT3=
EXTT4=
EXTT5=
EXTT6=
EXTT7=
EXTT8=
EXTT9=
EXTT10=
EXTT11=
EXTT12=
PLAYORDER=
